<svg xmlns="http://www.w3.org/2000/svg" viewBox="0 0 28.55 28.55"><defs><style>.cls-1{isolation:isolate;}.cls-2{fill:#fff;}</style></defs><title>Asset 3</title><g id="Layer_2" data-name="Layer 2"><g id="レイヤー_1" data-name="レイヤー 1"><g class="cls-1"><path class="cls-2" d="M20.15,28.55H8.4A8.41,8.41,0,0,1,0,20.15V8.4A8.41,8.41,0,0,1,8.4,0H20.15a8.41,8.41,0,0,1,8.4,8.4V20.15A8.41,8.41,0,0,1,20.15,28.55ZM8.4,2.69A5.71,5.71,0,0,0,2.69,8.4V20.15a5.71,5.71,0,0,0,5.71,5.7H20.15a5.71,5.71,0,0,0,5.7-5.7V8.4a5.71,5.71,0,0,0-5.7-5.71Z"/><path class="cls-2" d="M14.27,22.08a7.81,7.81,0,1,1,7.81-7.81A7.82,7.82,0,0,1,14.27,22.08Zm0-12.92a5.12,5.12,0,1,0,5.12,5.11A5.11,5.11,0,0,0,14.27,9.16Z"/><path class="cls-2" d="M22.35,4.58A1.62,1.62,0,1,0,24,6.19,1.61,1.61,0,0,0,22.35,4.58Z"/></g></g></g></svg>