<svg xmlns="http://www.w3.org/2000/svg" viewBox="0 0 48.08 48.08"><defs><style>.cls-1{fill:#fff;}</style></defs><title>ico-tw</title><g id="Layer_2" data-name="Layer 2"><g id="レイヤー_1" data-name="レイヤー 1"><path class="cls-1" d="M24,0a24,24,0,1,0,24,24A24,24,0,0,0,24,0ZM35,18.74c0,.24,0,.48,0,.72a15.59,15.59,0,0,1-15.7,15.7h0a15.71,15.71,0,0,1-8.46-2.48,11.67,11.67,0,0,0,1.32.07A11,11,0,0,0,19,30.39a5.52,5.52,0,0,1-5.15-3.83,5.82,5.82,0,0,0,1,.1,5.34,5.34,0,0,0,1.45-.2A5.51,5.51,0,0,1,12,21.06.15.15,0,0,1,12,21a5.39,5.39,0,0,0,2.49.68A5.49,5.49,0,0,1,12,17.08a5.42,5.42,0,0,1,.75-2.77,15.64,15.64,0,0,0,11.37,5.76A5.15,5.15,0,0,1,24,18.82,5.52,5.52,0,0,1,33.52,15,11,11,0,0,0,37,13.7a5.55,5.55,0,0,1-2.43,3.05,10.94,10.94,0,0,0,3.17-.86A11.33,11.33,0,0,1,35,18.74Z"/></g></g></svg>